<svg version="1" xmlns="http://www.w3.org/2000/svg" width="1365.333" height="1365.333" viewBox="0 0 1024.000000 1024.000000"><path d="M143.5 357.2c-30 3.3-54.3 18.8-66.7 42.4-4.9 9.5-10.5 25.5-11 31.9l-.3 3.9 24.5 4.2c29.5 5.2 29 5.1 29 2 0-4.2 4.1-15.9 7.5-21.1 7.6-11.9 21.2-17.9 35.3-15.6 14.7 2.4 24.1 11.8 26 26 3.5 25.5-14 44.1-41.4 44.1-3 0-5.4.1-5.5.2-.4 1.4-6.6 47.4-6.4 47.6.2.2 2.9-.4 6.1-1.3 3.3-.9 10.4-1.9 16-2.2 15.1-.9 23.4 2.4 32.7 12.7 5.8 6.5 8.5 12.2 10.4 22.5 3.4 18.7-1.6 37.4-13.2 49-8.9 9-21.3 13-33.9 10.8-17.2-2.9-29.3-15.1-33.8-34-1.2-4.9-2.2-8.9-2.2-9-.1-.1-12.5 1.4-27.6 3.3-15.1 1.8-27.8 3.3-28.1 3.4-.3 0-.2 2.2.2 5 3.3 21 11.6 37.7 25.9 52.1 20.8 21.1 47.8 30.1 82.5 27.7 34.6-2.4 65.1-22.2 80.7-52.4 5.6-10.8 8.4-20.5 9.8-33.5 2.5-24.2-4.4-45.3-20-60.8-8.7-8.8-15.7-13.2-27-17.1l-8.1-2.8 5.8-3.5c8-4.9 18.4-14.1 23.3-20.7 16.7-22.3 17.3-52.7 1.5-76.4-19.4-29.3-52.1-42.9-92-38.4zm240-.5c-22 2.7-36.6 8.9-49.9 21.4-18.5 17.3-30.3 45.6-35.6 85.9-3 22.7-2.8 73 .5 96.5 5.2 38 14.2 60.1 31.5 77.5 17.3 17.2 37.2 25.1 63.5 25.1 42.8 0 71.3-21.6 85.8-65.2 7.5-22.3 10.6-43.9 11.4-77.9 1.1-49.8-4.2-85.1-17.2-112.6-14-30-36.2-46.5-67.5-50.4-8.1-1-16.2-1.1-22.5-.3zm19.6 49.8c9.7 3.4 15.2 10.4 19.9 25.2 5.5 17.2 6.5 28.7 6.4 77.8 0 45.8-.9 59.3-5.1 75-2.2 8.5-8 20.1-11.6 23.1-11 9.3-27.2 9.7-37.5.8-7.5-6.4-13.8-22.6-16.2-41.4-2.9-22.9-2.9-89.5 0-112.5 3.6-29.3 11.6-44.2 26-48.6 4.3-1.3 13.6-1 18.1.6zM612 357.2c-21.4 2.6-41.6 14.2-54.2 31-19 25.2-27.5 58.7-28.5 113.3-.8 37.6 1.5 63 7.8 87.5 5.3 20.7 12 33.6 23.8 46.2 20.1 21.5 43.3 29.9 75.8 27.6 26.1-2 47.3-14.2 62-35.9 8.6-12.5 15.4-30.1 19.6-50.5 4.5-21.6 5.2-30.7 5.2-67.9-.1-31.1-.3-36.6-2.3-49.7-5.8-38.2-15.8-61.7-33.7-79.3-18.6-18.3-45.1-26.1-75.5-22.3zm23.2 48.8c12.8 3.6 21.6 19.1 25.6 45.5 2.5 16.3 2.5 98.5-.1 116.1-2.5 18-6.9 30.7-13.1 38.1-5.9 7-19 10.9-28.1 8.4-6.1-1.6-13.1-6.5-16.2-11.3-6.4-10.1-10.6-26.9-12.3-49.8-1.3-17.6-1.3-67.9 0-85.1 3-38.2 10.4-56 25.6-61.4 4.7-1.7 13.5-1.9 18.6-.5zm211-49c-41.4 5.8-67.2 34.1-78 85.5-8.7 41-8 103.8 1.4 143.5 9.9 41.9 34.7 68.1 71.4 75.6 10.5 2.1 35.1 1.5 44.5-1.1 38.8-10.8 60.9-43.2 69.1-101.3 4.7-33.6 3.5-85.7-2.7-115.3-10.2-49.2-34-77.8-70.7-85.4-9.2-1.9-26.7-2.7-35-1.5zm26.4 50.8c12.3 6.3 19.6 23.5 22.3 52.7 2.9 30.7 2.1 86-1.5 110.3-3.7 25.2-11.2 38.3-24.5 42.5-10.2 3.3-21.2 1-28.4-6-7.3-7.1-13.1-23.7-15.5-44.3-1.7-15.1-2.4-67.2-1.1-88 2.7-44 9.6-62.3 25.8-68.5 5.5-2.1 17.6-1.4 22.9 1.3z"/></svg>