<?xml version="1.0" standalone="no"?><!DOCTYPE svg PUBLIC "-//W3C//DTD SVG 20010904//EN" "http://www.w3.org/TR/2001/REC-SVG-20010904/DTD/svg10.dtd"><svg version="1.0" xmlns="http://www.w3.org/2000/svg" width="1024.000000pt" height="1024.000000pt" viewBox="0 0 1024.000000 1024.000000" preserveAspectRatio="xMidYMid meet"><g transform="translate(0.000000,1024.000000) scale(0.100000,-0.100000)" fill="#000000" stroke="none"><path d="M1435 6668 c-300 -33 -543 -188 -667 -424 -49 -95 -105 -255 -110 -319 l-3 -39 245 -42 c295 -52 290 -51 290 -20 0 42 41 159 75 211 76 119 212 179 353 156 147 -24 241 -118 260 -260 35 -255 -140 -441 -414 -441 -30 0 -54 -1 -55 -2 -4 -14 -66 -474 -64 -476 2 -2 29 4 61 13 33 9 104 19 160 22 151 9 234 -24 327 -127 58 -65 85 -122 104 -225 34 -187 -16 -374 -132 -490 -89 -90 -213 -130 -339 -108 -172 29 -293 151 -338 340 -12 49 -22 89 -22 90 -1 1 -125 -14 -276 -33 -151 -18 -278 -33 -281 -34 -3 0 -2 -22 2 -50 33 -210 116 -377 259 -521 208 -211 478 -301 825 -277 346 24 651 222 807 524 56 108 84 205 98 335 25 242 -44 453 -200 608 -87 88 -157 132 -270 171 l-81 28 58 35 c80 49 184 141 233 207 167 223 173 527 15 764 -194 293 -521 429 -920 384z"/><path d="M3835 6673 c-220 -27 -366 -89 -499 -214 -185 -173 -303 -456 -356 -859 -30 -227 -28 -730 5 -965 52 -380 142 -601 315 -775 173 -172 372 -251 635 -251 428 0 713 216 858 652 75 223 106 439 114 779 11 498 -42 851 -172 1126 -140 300 -362 465 -675 504 -81 10 -162 11 -225 3z m196 -498 c97 -34 152 -104 199 -252 55 -172 65 -287 64 -778 0 -458 -9 -593 -51 -750 -22 -85 -80 -201 -116 -231 -110 -93 -272 -97 -375 -8 -75 64 -138 226 -162 414 -29 229 -29 895 0 1125 36 293 116 442 260 486 43 13 136 10 181 -6z"/><path d="M6120 6668 c-214 -26 -416 -142 -542 -310 -190 -252 -275 -587 -285 -1133 -8 -376 15 -630 78 -875 53 -207 120 -336 238 -462 201 -215 433 -299 758 -276 261 20 473 142 620 359 86 125 154 301 196 505 45 216 52 307 52 679 -1 311 -3 366 -23 497 -58 382 -158 617 -337 793 -186 183 -451 261 -755 223z m232 -488 c128 -36 216 -191 256 -455 25 -163 25 -985 -1 -1161 -25 -180 -69 -307 -131 -381 -59 -70 -190 -109 -281 -84 -61 16 -131 65 -162 113 -64 101 -106 269 -123 498 -13 176 -13 679 0 851 30 382 104 560 256 614 47 17 135 19 186 5z"/><path d="M8462 6670 c-414 -58 -672 -341 -780 -855 -87 -410 -80 -1038 14 -1435 99 -419 347 -681 714 -756 105 -21 351 -15 445 11 388 108 609 432 691 1013 47 336 35 857 -27 1153 -102 492 -340 778 -707 854 -92 19 -267 27 -350 15z m264 -508 c123 -63 196 -235 223 -527 29 -307 21 -860 -15 -1103 -37 -252 -112 -383 -245 -425 -102 -33 -212 -10 -284 60 -73 71 -131 237 -155 443 -17 151 -24 672 -11 880 27 440 96 623 258 685 55 21 176 14 229 -13z"/></g></svg>
