<?xml version="1.0" encoding="UTF-8" standalone="no"?>
<svg
   version="1.1"
   width="183.24438"
   height="189.60187"
   viewBox="0 0 183.24439 189.60187"
   xmlns="http://www.w3.org/2000/svg"
   xmlns:svg="http://www.w3.org/2000/svg">
  <g transform="translate(-557.5554,-138)">
      <path
         style="fill:#fcc200;fill-opacity:1;stroke-width:1.33333"
         d="m 601.76556,326.17945 c -24.03015,-7.94003 -41.7304,-38.06469 -43.98133,-74.85333 -1.76256,-28.80694 6.7946,-61.66976 20.95576,-80.47821 7.3684,-9.78651 16.28224,-17.51457 20.20196,-17.51457 4.79251,0 7.7247,2.56464 7.7247,6.7564 0,5.24057 -2.28337,10.5068 -12.62948,29.1278 -11.32052,20.37477 -15.51937,35.68346 -15.75712,57.44913 -0.13844,12.67427 0.35946,16.93553 2.87107,24.57235 5.79859,17.63121 12.57372,26.93612 24.37046,33.47012 6.6285,3.67141 8.10906,3.95148 20.4784,3.87388 11.85859,-0.0744 14.41667,-0.54533 23.12786,-4.25761 15.55228,-6.62763 27.80862,-14.74504 40.5025,-26.82491 20.61775,-19.62047 32.93011,-42.00324 35.23486,-64.05388 2.65488,-25.40051 -18.6572,-54.65466 -42.19855,-57.92411 -14.72515,-2.04505 -35.48823,5.15592 -48.896,16.95791 -7.24136,6.3741 -9.77067,11.71461 -9.77067,20.63028 0,8.51898 -3.67486,13.55597 -9.89012,13.55597 -7.07872,0 -9.45717,-3.84845 -9.36852,-15.1588 0.0623,-7.94033 0.72943,-10.73324 4,-16.74427 5.7143,-10.50236 14.12306,-19.21097 25.01266,-25.9046 14.9375,-9.1818 21.35954,-10.859 41.57932,-10.859 16.92238,0 17.54788,0.10494 26.38238,4.42486 20.04431,9.80137 33.8956,28.27712 37.74863,50.35153 1.7864,10.23452 1.78356,12.95489 -0.0263,25.13727 -2.32136,15.62537 -8.17913,33.49577 -15.10672,46.08634 -15.88762,28.87502 -43.87286,51.59881 -73.89314,60.00066 -12.81166,3.58563 -40.6442,4.83152 -48.6726,2.17879 z" />
  </g>
</svg>
