<!DOCTYPE svg PUBLIC "-//W3C//DTD SVG 20010904//EN" "http://www.w3.org/TR/2001/REC-SVG-20010904/DTD/svg10.dtd">
<svg version="1.0" xmlns="http://www.w3.org/2000/svg" width="660px" height="449px" viewBox="0 0 6600 4490" preserveAspectRatio="xMidYMid meet">
<g id="layer1" fill="#000000" stroke="none">
 <path d="M2750 4308 c-5 -13 -16 -68 -25 -123 -9 -55 -20 -116 -26 -137 -9 -35 -10 -36 -37 -23 -15 7 -57 16 -94 20 -65 6 -68 6 -76 -17 -5 -13 -21 -120 -36 -238 -35 -279 -36 -284 -47 -273 -8 8 -28 379 -29 530 l0 63 -40 20 c-34 17 -51 20 -103 14 -96 -11 -107 -17 -107 -62 0 -111 65 -509 124 -763 35 -148 59 -268 54 -267 -6 2 -47 96 -93 208 -147 365 -296 715 -310 729 -11 11 -24 10 -82 -9 -109 -36 -109 -24 1 -222 71 -129 118 -231 180 -391 46 -119 80 -215 76 -212 -4 2 -15 25 -24 50 -20 51 -17 50 -126 30 -41 -7 -78 -11 -81 -9 -4 2 -17 45 -29 96 -12 51 -52 159 -87 240 l-65 148 -82 61 c-88 66 -98 68 -193 37 -35 -12 -38 -16 -41 -54 -4 -49 53 -174 195 -434 50 -91 110 -203 133 -250 23 -47 57 -105 74 -130 47 -66 49 -71 33 -64 -8 3 -64 60 -125 127 -61 67 -209 214 -330 326 -121 112 -241 232 -267 267 -26 35 -54 64 -63 64 -27 0 -124 -28 -135 -39 -5 -5 -6 -19 -1 -34 15 -44 187 -228 343 -367 82 -74 148 -138 145 -142 -3 -4 -12 -8 -20 -8 -8 0 -28 -10 -44 -21 l-28 -22 -84 58 c-46 32 -114 81 -151 108 l-68 50 -77 -7 c-84 -8 -98 -16 -108 -62 -5 -28 -2 -34 24 -50 39 -23 75 -71 68 -90 -5 -12 -24 -5 -100 35 -52 28 -127 65 -168 82 -65 27 -80 30 -138 24 -71 -7 -173 -56 -168 -81 2 -8 169 -109 373 -226 l370 -213 -3 -41 c-3 -41 -2 -43 47 -70 53 -28 67 -48 29 -40 -13 3 -45 8 -73 11 -27 4 -115 30 -195 60 -208 76 -219 79 -234 66 -7 -6 -24 -43 -37 -83 -13 -40 -25 -75 -26 -77 -1 -2 -55 4 -119 14 -97 14 -119 14 -130 3 -18 -19 -57 -159 -47 -169 5 -5 71 -13 148 -19 76 -5 142 -13 147 -18 4 -4 12 -28 16 -52 5 -25 15 -58 23 -75 l15 -30 139 0 139 0 8 -34 c5 -18 6 -37 1 -41 -4 -5 -53 -4 -108 2 -55 5 -147 7 -205 3 -91 -5 -110 -10 -143 -32 -38 -26 -38 -27 -32 -77 9 -64 19 -82 47 -89 13 -3 154 -26 313 -52 160 -25 297 -49 305 -52 8 -3 -75 -21 -185 -40 -189 -32 -235 -47 -235 -75 0 -28 56 -77 114 -102 l64 -27 373 20 c206 11 375 18 377 16 3 -2 -162 -114 -366 -248 -203 -135 -396 -264 -428 -288 -47 -34 -72 -45 -124 -54 -58 -9 -66 -13 -74 -38 -7 -19 -7 -34 0 -45 13 -20 143 -74 165 -69 9 2 188 111 399 241 210 130 384 235 386 234 1 -2 -60 -79 -137 -173 -76 -93 -139 -173 -139 -176 0 -13 28 -27 121 -60 l97 -33 293 286 c162 157 295 285 297 283 2 -1 -63 -177 -143 -390 -80 -214 -145 -392 -145 -398 0 -15 61 -87 74 -87 7 0 143 173 302 384 159 212 293 385 297 385 23 2 11 -52 -68 -303 -47 -152 -83 -281 -80 -286 4 -6 43 -29 87 -51 67 -33 83 -38 93 -27 7 7 38 96 70 198 32 102 62 190 67 195 6 6 7 -157 2 -445 -6 -383 -5 -457 7 -466 22 -17 140 -47 150 -37 4 4 13 222 19 483 7 350 16 525 31 665 21 194 26 222 35 213 2 -3 16 -51 29 -106 l24 -101 -25 -372 c-14 -210 -21 -376 -16 -381 15 -15 184 -40 195 -29 7 7 6 160 -1 468 -10 390 -10 479 3 598 8 77 15 146 15 153 0 6 6 12 13 12 8 0 26 -75 55 -242 37 -207 46 -289 62 -553 22 -353 27 -400 43 -413 7 -6 40 -18 75 -27 55 -16 64 -16 80 -3 39 34 41 33 107 -106 35 -75 71 -139 79 -142 8 -3 41 7 73 23 l58 28 -3 50 c-1 28 -29 184 -63 349 -33 164 -58 300 -56 303 3 2 28 -37 57 -86 l52 -91 78 0 c43 0 82 5 85 10 3 6 -3 57 -15 115 -18 90 -37 138 -130 335 l-109 230 -8 115 c-5 63 -5 111 -1 107 4 -4 63 -169 133 -367 125 -358 126 -363 184 -658 32 -164 62 -302 67 -307 5 -5 43 -11 84 -12 l75 -3 13 45 c20 67 25 74 70 85 22 5 44 13 47 17 4 4 -23 83 -59 175 -39 101 -96 277 -141 438 -41 149 -94 330 -119 402 -38 114 -43 138 -35 167 22 81 33 62 146 -254 80 -226 88 -243 200 -427 l116 -193 79 0 c55 0 80 4 84 13 2 7 -23 80 -56 161 -33 82 -59 150 -57 153 2 2 82 -82 178 -187 118 -129 180 -190 194 -190 45 1 149 20 158 29 7 7 -15 38 -69 96 -184 199 -183 199 6 56 96 -74 181 -136 188 -139 16 -6 182 106 182 123 0 8 -916 740 -974 777 -6 4 -8 9 -6 12 3 2 55 -25 115 -61 61 -36 216 -123 345 -194 231 -127 240 -130 460 -199 123 -39 234 -70 246 -70 28 0 72 36 109 90 25 36 27 43 13 56 -8 8 -136 62 -284 120 -148 58 -274 111 -281 117 -6 7 -15 24 -18 40 -6 21 -4 27 9 27 9 0 105 -25 214 -55 160 -44 243 -61 428 -86 230 -31 316 -33 340 -7 6 7 17 35 23 62 10 42 10 51 -5 67 -17 18 -16 19 29 13 43 -6 46 -5 62 26 15 29 16 48 6 175 -6 79 -11 148 -11 154 0 6 -35 29 -78 50 -73 37 -98 43 -365 87 -158 27 -287 52 -287 56 0 4 122 7 271 5 270 -2 271 -2 289 21 10 12 21 41 25 64 6 36 4 44 -15 60 -20 16 -47 18 -290 18 -208 0 -270 3 -278 13 -6 7 -13 33 -14 57 l-3 44 293 67 c171 38 332 69 385 73 50 4 96 11 102 16 7 6 17 34 25 63 11 49 11 57 -9 94 -11 23 -25 44 -31 48 -12 7 -190 -43 -516 -146 -121 -38 -225 -69 -230 -69 -21 1 35 24 272 111 284 104 324 122 324 147 0 41 -22 90 -55 122 -19 19 -35 37 -35 42 0 4 18 13 40 19 22 7 45 18 51 25 12 15 -4 151 -20 167 -6 6 -40 -9 -99 -47 l-90 -57 -299 -65 c-229 -50 -313 -64 -363 -62 l-65 3 3 35 c3 24 15 47 42 75 31 32 43 56 58 115 19 74 20 76 113 165 303 291 279 264 279 315 0 36 -7 55 -31 88 -17 23 -36 42 -42 42 -7 0 -63 -29 -125 -63 -90 -51 -165 -107 -380 -287 -147 -124 -295 -251 -330 -284 -34 -33 -64 -57 -67 -55 -11 12 76 181 230 448 92 160 169 300 172 310 4 16 -8 26 -67 56 -39 20 -78 35 -86 33 -8 -2 -77 -122 -152 -268 l-137 -265 -70 0 -70 0 -5 95 -5 95 -57 30 c-42 22 -60 27 -68 19 -6 -6 -22 -85 -36 -175 l-25 -164 -70 -125 c-59 -106 -87 -143 -184 -245 -87 -92 -116 -117 -126 -108 -9 9 -2 22 28 60 22 26 81 104 131 173 49 69 109 143 131 165 69 67 52 121 -49 149 -33 9 -60 18 -60 20 0 2 33 31 74 65 55 46 78 73 91 107 19 49 16 72 -15 122 -15 24 -24 31 -36 24 -35 -19 -292 -328 -391 -469 -59 -84 -109 -151 -111 -148 -2 2 1 20 8 40 10 31 10 43 -5 75 l-17 38 43 79 c99 179 229 394 277 458 29 37 52 74 52 80 0 7 -32 32 -71 56 -81 49 -70 51 -180 -39 -65 -53 -69 -59 -80 -114 -11 -53 -32 -89 -45 -75 -3 3 -10 38 -15 78 -9 73 -9 73 22 112 17 21 29 44 26 51 -8 20 -100 77 -109 68 -4 -4 -14 -28 -21 -52 -12 -41 -356 -595 -364 -587 -2 2 1 28 7 57 13 68 13 117 -1 125 -13 9 -147 -23 -176 -41 -13 -8 -23 -20 -23 -27 0 -20 -155 -331 -158 -316 -1 8 42 235 97 506 55 270 102 515 103 545 l3 53 -103 3 c-98 3 -102 2 -112 -20z m601 -761 c-10 -9 -11 -8 -5 6 3 10 9 15 12 12 3 -3 0 -11 -7 -18z m-47 -154 c-22 -89 -80 -233 -93 -233 -3 0 -12 4 -19 8 -10 7 0 36 39 123 28 63 59 133 70 157 10 23 20 42 23 42 2 0 -7 -44 -20 -97z m573 -55 c-19 -24 -51 -61 -71 -83 l-37 -40 32 55 c29 51 98 124 108 115 2 -3 -12 -24 -32 -47z m874 -304 c-70 -96 -130 -150 -157 -140 -32 12 -17 32 116 145 58 50 106 91 107 91 2 0 -28 -43 -66 -96z m-2854 78 c14 -9 65 -141 60 -156 -2 -6 -20 19 -39 54 -52 94 -59 126 -21 102z m3828 -141 c-18 -18 -672 -291 -696 -291 -26 0 -1 20 69 54 68 35 603 244 627 245 6 1 6 -2 0 -8z m-5029 -522 c25 -7 44 -17 44 -25 0 -19 -14 -18 -60 6 -60 31 -55 37 16 19z"/>
 </g>

</svg>