<?xml version="1.0" encoding="UTF-8" standalone="no"?>
<svg
   version="1.1"
   width="746.59088"
   height="287.45328"
   viewBox="0 0 746.59091 287.45327"
   xmlns="http://www.w3.org/2000/svg"
   xmlns:svg="http://www.w3.org/2000/svg">
  <g transform="translate(-256.66665,-60.102089)">
      <path
         style="fill:#6c579b;stroke-width:1.33333"
         d="m 903.13388,346.4279 c -3.77636,-0.69044 -7.90549,-2.40384 -9.17585,-3.80759 -2.78019,-3.07206 -2.81787,-2.96098 10.27333,-30.28361 5.00607,-10.44815 9.10195,-20.51697 9.10195,-22.37517 0,-4.70578 -3.88807,-5.92549 -6.56604,-2.05982 -5.46992,7.8959 -12.63309,14.76496 -15.39712,14.76496 -4.077,0 -7.8392,-4.42174 -6.73155,-7.91164 1.38158,-4.35296 7.43028,-10.85747 13.92954,-14.97916 6.50266,-4.12388 15.7829,-5.07751 21.97152,-2.25779 4.09112,1.86404 7.94702,9.51462 6.72922,13.35158 -0.80174,2.52608 -7.04164,16.14985 -17.21172,37.57897 -4.892,10.3078 -3.81089,11.3289 8.75988,8.27356 5.2925,-1.28634 12.27352,-3.47506 15.51338,-4.86382 7.09689,-3.04208 10.4591,-3.19863 11.4814,-0.53458 1.0242,2.66904 -3.2767,6.46167 -12.02475,10.60367 -12.34917,5.84705 -18.41592,6.73776 -30.65319,4.50044 z m 50.71823,-2.31369 c -6.27959,-2.73178 -5.70107,-5.489 6.45843,-30.78087 9.92474,-20.64357 11.573,-27.12723 7.02277,-27.62514 -1.82093,-0.19925 -4.27351,1.82804 -7.7332,6.39223 -6.44761,8.50603 -10.55604,10.5911 -14.26139,7.23782 -4.39606,-3.97839 -3.46245,-9.66594 2.52098,-15.35785 14.23706,-13.5434 32.45981,-14.1238 36.34458,-1.1576 1.34948,4.50415 0.93568,6.04939 -5.54033,20.68913 -3.84929,8.70177 -8.4234,18.65146 -10.16468,22.11042 -1.74128,3.45895 -3.16596,6.90895 -3.16596,7.66667 0,2.81869 13.17584,1.36865 24.07323,-2.64935 8.30409,-3.06181 11.35506,-3.6674 12.72956,-2.52665 3.211,2.66485 -0.4788,6.53124 -11.0022,11.52877 -8.73432,4.14791 -11.50683,4.7989 -22.22328,5.21798 -6.73419,0.26336 -13.51051,-0.0721 -15.05851,-0.74556 z M 601.76556,326.17945 c -24.03015,-7.94003 -41.7304,-38.06469 -43.98133,-74.85333 -1.76256,-28.80694 6.7946,-61.66976 20.95576,-80.47821 7.3684,-9.78651 16.28224,-17.51457 20.20196,-17.51457 4.79251,0 7.7247,2.56464 7.7247,6.7564 0,5.24057 -2.28337,10.5068 -12.62948,29.1278 -11.32052,20.37477 -15.51937,35.68346 -15.75712,57.44913 -0.13844,12.67427 0.35946,16.93553 2.87107,24.57235 5.79859,17.63121 12.57372,26.93612 24.37046,33.47012 6.6285,3.67141 8.10906,3.95148 20.4784,3.87388 11.85859,-0.0744 14.41667,-0.54533 23.12786,-4.25761 15.55228,-6.62763 27.80862,-14.74504 40.5025,-26.82491 20.61775,-19.62047 32.93011,-42.00324 35.23486,-64.05388 2.65488,-25.40051 -18.6572,-54.65466 -42.19855,-57.92411 -14.72515,-2.04505 -35.48823,5.15592 -48.896,16.95791 -7.24136,6.3741 -9.77067,11.71461 -9.77067,20.63028 0,8.51898 -3.67486,13.55597 -9.89012,13.55597 -7.07872,0 -9.45717,-3.84845 -9.36852,-15.1588 0.0623,-7.94033 0.72943,-10.73324 4,-16.74427 5.7143,-10.50236 14.12306,-19.21097 25.01266,-25.9046 14.9375,-9.1818 21.35954,-10.859 41.57932,-10.859 16.92238,0 17.54788,0.10494 26.38238,4.42486 20.04431,9.80137 33.8956,28.27712 37.74863,50.35153 1.7864,10.23452 1.78356,12.95489 -0.0263,25.13727 -2.32136,15.62537 -8.17913,33.49577 -15.10672,46.08634 -15.88762,28.87502 -43.87286,51.59881 -73.89314,60.00066 -12.81166,3.58563 -40.6442,4.83152 -48.6726,2.17879 z M 550.43945,167 c -0.12493,-0.55 -0.29726,-6.1 -0.38292,-12.33333 -0.17432,-12.68669 -2.80478,-26.58761 -5.16869,-27.31433 -0.85499,-0.26285 -3.74659,-0.84097 -6.42579,-1.28472 -5.72502,-0.94822 -7.41396,-3.93054 -3.91668,-6.91604 9.42699,-8.04746 9.40422,-8.0116 8.06246,-12.69001 -2.5383,-8.850538 -0.5456,-28.402959 3.13306,-30.741679 0.87584,-0.556814 3.2553,-1.021576 5.28768,-1.032806 5.56963,-0.03077 7.13322,4.517506 4.36055,12.684217 -2.48963,7.333049 -1.69456,19.495418 1.44476,22.100828 1.16268,0.96493 4.08401,1.24844 7.72379,0.74955 4.21485,-0.57771 6.29369,-0.27236 7.42484,1.0906 2.8461,3.42934 0.88548,6.20902 -5.98252,8.48168 L 559.33332,122 l 0.0581,6 c 0.032,3.3 0.79331,11.54219 1.69182,18.31598 1.38601,10.44917 1.33698,13.02596 -0.32347,17 -1.63172,3.90536 -2.63335,4.68402 -6.02511,4.68402 -2.23742,0 -4.17028,-0.45 -4.29524,-1 z M 393.58582,156.2525 c -2.90224,-2.90224 -3.53748,-10.5776 -5.06888,-61.244873 -0.93254,-30.85361 -0.64971,-32.340959 6.14972,-32.340959 5.44786,0 6.95149,2.7833 6.63716,12.285857 -0.40824,12.341515 -0.79852,11.714143 7.28724,11.714143 5.98844,0 7.62072,0.518252 9.33333,2.963342 3.27876,4.681086 2.47897,9.202884 -3.33179,18.83726 -3.22813,5.35231 -5.10865,9.90683 -4.66613,11.3011 0.86541,2.72669 12.52008,9.92937 19.74019,12.19961 5.48008,1.72312 6.57348,4.68625 2.2371,6.06257 -3.8237,1.21359 -8.30452,-0.0752 -19.69029,-5.66343 -8.07203,-3.96181 -10.00229,-4.47311 -11.01815,-2.91854 -0.6774,1.03662 -1.07346,7.86642 -0.88014,15.17736 0.30614,11.57796 0.0611,13.35141 -1.89988,13.74864 -1.23824,0.25082 -3.41151,-0.70411 -4.82948,-2.12208 z m -127.51023,-5.88251 c -1.14157,-1.62983 -2.0756,-3.48237 -2.0756,-4.11675 0,-0.63437 7.10396,-12.35086 15.78656,-26.03665 25.86186,-40.764205 26.31895,-41.578005 24.13107,-42.962382 -2.53471,-1.603828 -1.78761,-1.659344 -20.72433,1.540027 -16.42772,2.775473 -16.5723,2.776833 -21.5327,0.202616 -2.74666,-1.425391 -4.99393,-3.432795 -4.99393,-4.4609 0,-3.179171 20.42623,-6.671319 40.66667,-6.952531 16.6339,-0.231106 18.36942,-0.02036 22.8677,2.776896 6.12167,3.806761 7.27415,6.671333 4.19303,10.42206 -24.54384,29.877894 -40.39407,52.335604 -40.39407,57.233164 0,2.54893 -0.0877,2.55133 31.07486,-0.85006 19.22749,-2.09868 26.80751,-2.4831 27.87681,-1.41381 3.8228,3.8228 -5.31612,6.85416 -34.95167,11.59337 -6.96666,1.1141 -15.96666,2.9101 -20,3.99114 -11.22094,3.00748 -19.39338,2.64733 -21.9244,-0.96619 z m 327.59937,-9.8962 c -6.42872,-3.16923 -9.65649,-9.32213 -9.7738,-18.63117 -0.17263,-13.69855 -1.52049,-19.08866 -5.23451,-20.93286 -4.4488,-2.209069 -4.28629,-6.417086 0.33334,-8.631213 3.64705,-1.747991 3.66666,-1.83044 3.66666,-15.417967 0,-8.847117 0.56378,-14.224358 1.6,-15.260579 2.17976,-2.179763 7.83523,-1.942209 11.01595,0.462717 2.32045,1.754482 2.62168,3.67003 2.66667,16.957595 l 0.0507,14.979689 3.99999,-0.556111 c 9.50179,-1.321011 11.98327,-0.894731 12.41424,2.132563 0.4753,3.338532 -2.07216,5.071606 -9.50421,6.465866 -7.77881,1.45931 -8.91278,3.37932 -8.89037,15.05292 0.0107,5.63095 0.78517,11.7381 1.72081,13.57143 1.46918,2.8788 2.60284,3.33333 8.31367,3.33333 5.69061,0 6.61253,0.3663 6.61253,2.6273 0,5.51097 -11.06812,7.75266 -18.99169,3.84649 z m -111.76843,-2.75772 c -2.01096,-2.01095 -2.18265,-4.28187 -1.43649,-19 0.46609,-9.19384 1.32231,-18.816068 1.90268,-21.382735 0.94429,-4.175988 1.56755,-4.709675 5.92759,-5.075697 4.01326,-0.336912 5.27142,0.200054 7.13582,3.045486 2.13922,3.264855 2.69131,3.406116 10.05578,2.572923 6.08176,-0.688073 8.52562,-0.401089 11.13302,1.307345 4.41634,2.893688 8.19184,10.581918 9.2404,18.816608 1.11842,8.78328 -1.11846,13.33334 -6.55492,13.33334 -3.71845,0 -3.99805,-0.38148 -4.88634,-6.66667 -2.42874,-17.18476 -3.46315,-18.3633 -12.82846,-14.61605 -6.00028,2.40084 -7.59098,5.32788 -8.87722,16.33492 -1.54003,13.17872 -5.1649,16.97749 -10.81186,11.33053 z m -35.90654,-3.41641 c -6.60405,-3.70216 -9.46372,-9.28892 -11.51788,-22.5018 -1.92744,-12.397757 -1.28497,-14.470992 4.47604,-14.444108 7.42613,0.03466 10.37517,4.002108 10.37517,13.958138 0,6.19255 2.97983,14.02145 5.33684,14.02145 0.69759,0 2.29552,-1.56766 3.55095,-3.48369 1.88928,-2.8834 2.23479,-6.33516 2.00513,-20.03202 -0.30492,-18.185993 0.58887,-20.211139 7.05123,-15.976838 4.07156,2.667794 6.12604,9.303764 6.86041,22.159208 1.33683,23.4017 -11.65166,35.54166 -28.13789,26.29966 z m -71.62393,-1.73834 c -1.28968,-2.83052 -2.16891,-3.28127 -4.97142,-2.54865 -13.19332,3.44896 -20.47874,0.97623 -25.3696,-8.61062 -3.15278,-6.17998 -4.70178,-18.89116 -3.01426,-24.735382 0.9357,-3.240584 1.97754,-4.080556 5.48753,-4.424308 6.95792,-0.681422 8.15835,1.329407 8.15835,13.66606 0,11.70777 1.86222,16.53056 5.79956,15.01966 3.32368,-1.27541 7.35454,-8.79826 8.33264,-15.55131 0.48142,-3.32389 1.41973,-7.093435 2.08513,-8.376768 1.49145,-2.876496 8.14593,-3.108763 10.42401,-0.363839 2.336,2.814703 1.377,34.131357 -1.13793,37.160077 -2.54529,3.06526 -3.97341,2.76087 -5.79401,-1.23492 z m 243.13928,-9.38389 -3.07798,-2.15591 4.7813,-3.94116 c 5.75564,-4.74428 6.04098,-7.9478 1.92427,-21.603274 -4.26664,-14.152791 -3.91896,-19.861667 1.55348,-25.507794 5.11209,-5.27434 8.12895,-6.553192 12.73313,-5.397614 4.1406,1.039223 4.10888,4.007335 -0.0963,9.004815 -4.1723,4.958488 -4.30954,10.829743 -0.57858,24.752261 2.37399,8.858806 2.53238,11.074046 1.14587,16.026186 -2.71203,9.68641 -11.28111,13.79843 -18.38527,8.82249 z"/>
      <path
         style="fill:#281e37;stroke-width:1.33333"
         d="m 416.99984,313.88875 c -0.54992,-0.54992 -0.99985,-37.12639 -0.99985,-81.28104 0,-66.48815 0.31496,-80.54259 1.83321,-81.80261 3.01956,-2.50603 64.74027,-1.05695 74.83345,1.75693 29.62836,8.26009 52.6424,31.79537 59.42535,60.77131 2.46225,10.51842 2.11929,30.99696 -0.68105,40.66666 -5.75572,19.8747 -21.47339,40.3083 -38.15667,49.60518 -16.34393,9.10777 -22.29607,10.164 -60.58777,10.75152 -19.06675,0.29255 -35.11675,0.082 -35.66667,-0.46795 z m 73.98177,-40.39321 c 8.7494,-4.30236 16.63288,-12.36452 20.81656,-21.28836 3.04951,-6.50464 3.53432,-9.28058 3.52912,-20.20718 -0.005,-11.15961 -0.44954,-13.57132 -3.73381,-20.27014 -4.53263,-9.24508 -14.59917,-18.64972 -23.26789,-21.73795 -7.75635,-2.7632 -31.53839,-4.34433 -32.87261,-2.18552 -0.68842,1.11388 -1.4607,77.75825 -0.88644,87.97501 0.0789,1.40508 3.26897,1.67979 15.10011,1.3004 12.37472,-0.39681 16.10524,-1.02448 21.31496,-3.58626 z m 256.31105,39.54027 c -0.35809,-0.93636 -0.49545,-37.70247 -0.30523,-81.70247 l 0.34588,-80 h 14.66667 14.66667 L 780.32026,159 c 2.00949,4.21667 4.15491,7.66667 4.76759,7.66667 0.61268,0 2.56854,-1.55709 4.34638,-3.46021 8.07542,-8.64452 23.9956,-13.66794 37.83603,-11.9387 9.04272,1.12982 8.96811,0.9232 8.44843,23.39891 l -0.38538,16.66667 -12,0.82864 c -6.6,0.45574 -13.53382,1.44672 -15.40849,2.20217 -5.45564,2.19849 -11.69251,8.0994 -15.61765,14.77639 l -3.64052,6.1928 -0.66667,49.33333 -0.66667,49.33334 -19.69477,0.36913 c -15.02119,0.28155 -19.84928,-0.0348 -20.34588,-1.33333 z m 93.33665,-2.70984 c -0.42493,-1.69306 -0.59006,-42.35902 -0.36698,-90.36879 l 0.40561,-87.29051 3.08857,-8.5561 c 8.16814,-22.62779 23.90063,-34.569128 47.181,-35.81151 23.5436,-1.256429 25.23652,0.07723 24.96863,19.66988 -0.10787,7.88857 -0.64386,15.0673 -1.1911,15.95274 -0.5961,0.96452 -4.68041,1.70379 -10.18834,1.84411 -13.28444,0.33844 -19.81216,5.55139 -22.48407,17.95549 -1.59275,7.39419 0.25687,8.27872 17.31129,8.27872 12.89892,0 15.15031,0.32027 15.89508,2.26108 0.97879,2.55071 0.79786,32.06534 -0.21272,34.69886 -0.48136,1.25437 -4.85782,1.70673 -16.51229,1.70673 -8.72153,0 -15.99203,0.15 -16.15664,0.33333 -0.16461,0.18334 -0.61461,27.63334 -1,61 l -0.70071,60.66667 -19.63237,0.36879 c -19.53322,0.36691 -19.63626,0.35323 -20.40496,-2.70949 z"/>
  </g>
</svg>
